  100 /*
  110 /* mz-mappy main bgm
  120 /*
  130 m_init()
  140 m_alloc(1, 2000)
  150 m_assign(1, 1)
  160 m_trk(1, "@31t180l8o4v13")
  170 m_trk(1, "|:c#ag#aa#4a4gagdg4.r")
  180 m_trk(1, "gf#ga4g4fgfdc4.r")
  190 m_trk(1, ">g<edc>a<edcr")
  200 m_trk(1, "agcfe16r16d16r16c16r16:|")
  210 m_trk(1, "|:5>a<ce:||:5>gb<d:|")
  220 m_trk(1, "l16>a.<cd8>b.<de8c.ef#8d.f#g8e.ga8f#.ab8")
  230 m_trk(1, "<c.>b<c>b<c>b<c>l8")
  240 m_trk(1, "|:c#ag#aa#4a4gagdg4.r")
  250 m_trk(1, "gf#ga4g4fgfdc4.r")
  260 m_trk(1, ">a<edc>a<edcr")
  270 m_trk(1, "agcfe16r16d16r16c16r16:|")
  280 /*m_trk(1, "<c>b<cdc>b<c")
  290 m_trk(1, "agaa#agac<edc>g4r gf#gagabr<c>bgara#r")
  300 m_trk(1, "agaa#agarf#g<ce16.d16e16.dd16c16d16r16")
  310 m_trk(1, "f#.d16.c16.d16.>b16.f#16.g16.a16.g16.agf#edg16.rg16.r")
  320 m_play()
  330 end
